Coordinates
version=1
nRows=5
nColumns=40
inDegrees=yes

Units are S.I. units (second, meters, Newtons, ...)
Angles are in degrees.

endheader
time	pelvis_tilt	pelvis_list	pelvis_rotation	pelvis_tx	pelvis_ty	pelvis_tz	hip_flexion_r	hip_adduction_r	hip_rotation_r	knee_angle_r	knee_angle_r_beta	ankle_angle_r	subtalar_angle_r	mtp_angle_r	hip_flexion_l	hip_adduction_l	hip_rotation_l	knee_angle_l	knee_angle_l_beta	ankle_angle_l	subtalar_angle_l	mtp_angle_l	lumbar_extension	lumbar_bending	lumbar_rotation	arm_flex_r	arm_add_r	arm_rot_r	elbow_flex_r	pro_sup_r	wrist_flex_r	wrist_dev_r	arm_flex_l	arm_add_l	arm_rot_l	elbow_flex_l	pro_sup_l	wrist_flex_l	wrist_dev_l
      0.87000000	      0.81874046	     -5.30343106	      2.21179863	     -0.54201447	      0.89496656	      1.01065284	     12.86936180	      6.14529513	    -20.13429828	    -20.67417036	     -0.36083234	      3.72378384	     -2.05547954	     -0.52292826	     -1.19058278	     10.82142799	     10.84516060	    -45.63795887	     -0.79653265	    -10.91133289	      0.62645320	    -11.80310845	     -8.16855077	      7.83399621	     -3.83295620	      1.94598723	    -10.12455461	     16.99947489	     16.49617213	     89.95437384	      0.00000000	      0.00000000	      7.80984212	      7.60507250	    -19.60507484	     18.45121134	     89.95437384	      0.00000000	      0.00000000
      0.88000000	      1.18212329	     -5.57573019	      2.33128041	     -0.53387959	      0.89531869	      1.01196741	     11.80811734	      6.61834830	    -20.15657393	    -20.53011825	     -0.35831816	      4.39556327	     -1.79312795	     -0.63321183	     -0.23810613	     11.50345668	     10.81864483	    -47.70006696	     -0.83252322	     -9.81742409	      2.27608515	    -11.62337561	     -8.54945454	      8.09064427	     -3.56045113	      2.25314975	    -10.36223809	     17.07222622	     16.78244847	     89.95437384	      0.00000000	      0.00000000	      7.47431883	      7.48008625	    -19.68819425	     17.91424604	     89.95437384	      0.00000000	      0.00000000
      0.89000000	      1.47107992	     -5.73511602	      2.52648520	     -0.52608164	      0.89553806	      1.01300802	     10.85989378	      6.92906637	    -20.26714876	    -20.37895772	     -0.35567991	      4.80763398	     -1.63254937	     -0.68586269	      0.91243824	     11.85159846	     10.38136863	    -49.67730607	     -0.86703255	     -8.35217877	      4.41704488	    -11.34372106	     -8.88588584	      8.23765611	     -3.38782031	      2.60788397	    -10.63954141	     17.35962561	     17.09835454	     89.95437384	      0.00000000	      0.00000000	      7.09799734	      7.42761433	    -19.65314045	     17.62790903	     89.95437384	      0.00000000	      0.00000000
      0.90000000	      1.95738631	     -5.77014958	      2.63582487	     -0.51814001	      0.89607551	      1.01407508	      9.75269680	      7.10613407	    -20.30963581	    -20.43857567	     -0.35672044	      5.43228835	     -1.51833079	     -0.77680631	      1.71367351	     12.16722031	     10.30353329	    -51.27284674	     -0.89487999	     -7.33366664	      5.30305479	    -11.27232657	     -9.40772923	      8.24458356	     -3.13681619	      3.10095760	    -10.81109438	     17.56566002	     17.07959435	     89.95437384	      0.00000000	      0.00000000	      6.74366667	      7.39011309	    -19.81850784	     17.24018792	     89.95437384	      0.00000000	      0.00000000
      0.91000000	      2.30450962	     -5.82912620	      2.79833040	     -0.51065900	      0.89648154	      1.01504825	      8.75196072	      7.31374724	    -20.41750867	    -20.27924001	     -0.35393951	      5.98103446	     -1.28667138	     -0.85966273	      2.77605224	     12.33278384	      9.83065230	    -52.75413718	     -0.92073339	     -6.09467895	      6.31644151	    -11.16396739	     -9.84827842	      8.27884153	     -2.86292509	      3.57661473	    -11.03848928	     17.78930212	     17.22944884	     89.95437384	      0.00000000	      0.00000000	      6.37591880	      7.41257648	    -19.97723568	     17.14560976	     89.95437384	      0.00000000	      0.00000000
